<?xml version="1.0" encoding="UTF-8"?>
<svg version="1.1" xmlns="http://www.w3.org/2000/svg" width="500" height="500">
<path d="M0 0 C165 0 330 0 500 0 C500 165 500 330 500 500 C335 500 170 500 0 500 C0 335 0 170 0 0 Z " fill="#FEFEFE" transform="translate(0,0)"/>
<path d="M0 0 C35.97 0 71.94 0 109 0 C109 12.54 109 25.08 109 38 C87.22 38 65.44 38 43 38 C43 50.21 43 62.42 43 75 C63.13 75 83.26 75 104 75 C104.0002664 84.04704812 104.0005247 93.09409578 104.00006104 102.1411438 C103.99977751 108.17999289 104.00011265 114.2188409 104.00177157 120.25768977 C104.00684142 139.74981648 103.98323209 159.24165483 103.9197216 178.7336874 C103.8899986 188.08008778 103.87201629 197.42625446 103.87988281 206.77270508 C103.88681013 215.03946336 103.87283098 223.30587476 103.83356392 231.5725475 C103.81363496 235.91681245 103.80390646 240.26053138 103.81957626 244.60482597 C103.83389852 248.6612027 103.82020661 252.71652185 103.78504753 256.7727623 C103.77709972 258.25500034 103.77930588 259.73733426 103.79260826 261.21953392 C103.89581802 273.77988662 103.89581802 273.77988662 100.07669067 278.3731842 C96.68018094 281.61685544 93.96114174 282.45683315 89.171875 282.421875 C85.2321785 281.65661021 82.52689113 279.01029639 80 276 C78.87833868 272.63501605 78.87696761 270.11236294 78.87974548 266.5650177 C78.87889106 265.90908605 78.87803663 265.2531544 78.87715632 264.57734603 C78.87550685 262.375511 78.88101416 260.17375186 78.88647461 257.97192383 C78.88675662 256.39514671 78.88659847 254.81836945 78.8860321 253.24159241 C78.88574468 248.95677128 78.89163257 244.67197804 78.89860606 240.3871634 C78.90484871 235.91083558 78.90544412 231.43450716 78.90663147 226.95817566 C78.90974209 218.47968682 78.91795187 210.00121084 78.92798096 201.52272767 C78.93915043 191.87109017 78.94465465 182.21945206 78.94967639 172.5678097 C78.96013469 152.71186436 78.97847685 132.85593665 79 113 C67.12 113 55.24 113 43 113 C43 138.08 43 163.16 43 189 C28.81 189 14.62 189 0 189 C0 126.63 0 64.26 0 0 Z " fill="#CB6CE6" transform="translate(149,114)"/>
<path d="M0 0 C7.92 0 15.84 0 24 0 C24.13893537 20.87081226 24.24598862 41.74151301 24.31087303 62.61269474 C24.34180177 72.30372428 24.38396347 81.99446109 24.45263672 91.68530273 C24.51246887 100.13256208 24.55115629 108.5796094 24.56453097 117.02707475 C24.57234834 121.49943219 24.59069993 125.97118312 24.63438034 130.44334602 C24.67518201 134.65499395 24.68765405 138.86578703 24.67864609 143.07761383 C24.68029338 144.6211633 24.69218424 146.16474209 24.71523285 147.70812035 C24.90134453 160.8162305 24.90134453 160.8162305 21.08242798 165.41087341 C17.68162356 168.61846741 14.93567504 169.45664726 10.171875 169.421875 C6.2321785 168.65661021 3.52689113 166.01029639 1 163 C-0.12166132 159.63501605 -0.12303239 157.11236294 -0.12025452 153.5650177 C-0.12110894 152.90908605 -0.12196337 152.2531544 -0.12284368 151.57734603 C-0.12449315 149.375511 -0.11898584 147.17375186 -0.11352539 144.97192383 C-0.11324338 143.39514671 -0.11340153 141.81836945 -0.1139679 140.24159241 C-0.11425532 135.95677128 -0.10836743 131.67197804 -0.10139394 127.3871634 C-0.09515129 122.91083558 -0.09455588 118.43450716 -0.09336853 113.95817566 C-0.09025791 105.47968682 -0.08204813 97.00121084 -0.07201904 88.52272767 C-0.06084957 78.87109017 -0.05534535 69.21945206 -0.05032361 59.5678097 C-0.03986531 39.71186576 -0.0220701 19.85593414 0 0 Z " fill="#0097B2" transform="translate(228,227)"/>
<path d="M0 0 C3.22344672 2.4340312 4.7746971 4.66204565 7 8 C7.25726891 10.09873581 7.25726891 10.09873581 7.26742554 12.56561279 C7.27595551 13.50200592 7.28448547 14.43839905 7.29327393 15.40316772 C7.29236755 16.4286673 7.29146118 17.45416687 7.29052734 18.51074219 C7.30060318 20.13313309 7.30060318 20.13313309 7.31088257 21.78829956 C7.32992606 25.37453775 7.33379026 28.96058935 7.3359375 32.546875 C7.34236198 35.03688637 7.34909008 37.52689697 7.35610962 40.01690674 C7.36809897 45.24240328 7.37187437 50.46785238 7.37060547 55.69335938 C7.36953801 61.05741245 7.38359947 66.42117726 7.41162109 71.78515625 C7.44496254 78.25959266 7.45871662 84.73377003 7.45738602 91.2082901 C7.45974546 93.67542229 7.46858818 96.14255716 7.48405075 98.60964203 C7.50366967 102.06395595 7.49788741 105.51735063 7.48583984 108.97167969 C7.49707886 109.98908234 7.50831787 111.00648499 7.51989746 112.05471802 C7.46506326 118.24913936 6.64257426 121.9393034 3 127 C-0.34307413 129.87875828 -3.49930522 130.63913532 -7.93359375 130.49609375 C-11.78540026 129.57136894 -14.41489576 126.89231952 -17 124 C-18.19713172 121.60573656 -18.13612893 120.10789327 -18.15390015 117.434021 C-18.16250061 116.47231491 -18.17110107 115.51060883 -18.17996216 114.51976013 C-18.18422211 113.46104202 -18.18848206 112.40232391 -18.19287109 111.31152344 C-18.20104858 110.19920853 -18.20922607 109.08689362 -18.21765137 107.94087219 C-18.24253482 104.24704533 -18.25902891 100.55325697 -18.2734375 96.859375 C-18.28142302 94.97024258 -18.28142302 94.97024258 -18.28956985 93.04294586 C-18.31080574 87.75003477 -18.3299353 82.45713721 -18.34119225 77.16419601 C-18.35742352 69.58246258 -18.39057892 62.00124228 -18.44759309 54.41970229 C-18.49099686 48.44388528 -18.50694078 42.46830147 -18.51332474 36.4923172 C-18.52004961 33.95176796 -18.53530344 31.41122655 -18.55921555 28.87078094 C-18.59077083 25.31547413 -18.59091749 21.7614643 -18.58349609 18.20605469 C-18.59990143 17.1554335 -18.61630676 16.10481232 -18.63320923 15.02235413 C-18.59368905 10.39980947 -18.56429718 7.05397505 -15.58853149 3.36212158 C-10.89867015 -0.91753378 -6.15747151 -0.8097253 0 0 Z " fill="#0398B2" transform="translate(303,193)"/>
<path d="M0 0 C4.07226632 2.07315376 6.36602706 3.74489184 8 8 C8.26069641 10.75643921 8.26069641 10.75643921 8.2746582 13.95849609 C8.28895622 15.76089249 8.28895622 15.76089249 8.30354309 17.59970093 C8.30263168 18.894534 8.30172028 20.18936707 8.30078125 21.5234375 C8.30467081 22.87098319 8.30900602 24.21852766 8.31376648 25.56607056 C8.32122098 28.38881404 8.32094346 31.21143244 8.31567383 34.03417969 C8.30988592 37.64106077 8.32679683 41.2474272 8.3500185 44.85422325 C8.36479475 47.6373084 8.36562219 50.42027079 8.36250877 53.20338821 C8.36326797 55.17641716 8.37711237 57.14942713 8.39118958 59.12240601 C8.38496078 60.33030792 8.37873199 61.53820984 8.37231445 62.78271484 C8.37294388 63.8409848 8.3735733 64.89925476 8.3742218 65.98959351 C7.82971038 70.36988537 6.27722913 73.7492694 3.1171875 76.84375 C-0.76435826 78.96356097 -4.71987258 78.73469904 -9 78 C-12.61984803 76.10665263 -14.68828756 73.93513731 -16 70 C-16.11390638 67.9926796 -16.16924717 65.98184639 -16.19287109 63.97143555 C-16.20893402 62.72972092 -16.22499695 61.48800629 -16.24154663 60.20866394 C-16.25303404 58.85135586 -16.26364259 57.4940401 -16.2734375 56.13671875 C-16.27876118 55.45190744 -16.28408485 54.76709614 -16.28956985 54.06153297 C-16.31627041 50.43662258 -16.33565495 46.81174625 -16.35009766 43.18676758 C-16.36343452 40.19231604 -16.39128479 37.19854636 -16.43212891 34.2043457 C-16.48152499 30.58277003 -16.50622661 26.96181246 -16.51332474 23.33991432 C-16.52002392 21.96321676 -16.53521162 20.58653228 -16.55921555 19.21002769 C-16.75836806 7.0985477 -16.75836806 7.0985477 -13.59228516 3.17114258 C-9.2037091 -0.50446553 -5.59053685 -0.6858978 0 0 Z " fill="#0298B2" transform="translate(357,193)"/>
</svg>
