<svg version="1.1" id="Layer_1" xmlns="http://www.w3.org/2000/svg" xmlns:xlink="http://www.w3.org/1999/xlink" x="0px" y="0px"
	 width="100%" viewBox="0 0 387 94" enable-background="new 0 0 387 94" xml:space="preserve">
<path fill="#FBF9FE" opacity="1.000000" stroke="none" 
	d="
M255.000000,95.000000 
	C170.000015,95.000000 85.500038,95.000000 1.000045,95.000000 
	C1.000030,63.666695 1.000030,32.333389 1.000015,1.000062 
	C129.999939,1.000041 258.999878,1.000041 387.999878,1.000021 
	C387.999908,32.333267 387.999908,63.666534 387.999939,94.999901 
	C343.833344,95.000000 299.666656,95.000000 255.000000,95.000000 
M31.068573,39.197903 
	C31.063557,52.467518 30.943804,65.739304 31.194229,79.004097 
	C31.226664,80.722160 32.946507,83.623116 34.273796,83.868095 
	C37.869232,84.531700 37.265202,81.272835 37.271706,79.087685 
	C37.312199,65.486542 37.279182,51.885166 37.773804,37.590729 
	C37.773804,34.510258 37.773804,31.429789 37.773804,27.805468 
	C32.035213,27.805468 26.801764,27.805468 21.434340,27.805468 
	C21.434340,24.329271 21.434340,21.420900 21.434340,17.780357 
	C27.415157,17.780357 33.118736,17.780357 38.882252,17.780357 
	C38.882252,13.948474 38.882252,10.855721 38.882252,7.151961 
	C29.667068,7.151961 20.732763,7.037938 11.811371,7.325112 
	C10.900901,7.354420 9.357528,9.769547 9.316106,11.114758 
	C9.075607,18.925034 9.196521,26.746450 9.196011,34.564098 
	C9.195492,42.505829 9.195895,50.447556 9.195895,58.585381 
	C13.455852,58.585381 17.135891,58.585381 21.131901,58.585381 
	C21.131901,54.687870 21.131899,51.206436 21.131901,47.725002 
	C21.131908,37.710621 21.131910,37.710621 31.068573,39.197903 
M285.571198,40.837315 
	C285.571198,46.797081 285.571198,52.756847 285.571198,59.079121 
	C287.639435,58.958202 289.189484,58.867580 291.312042,58.743484 
	C290.897766,50.888432 290.974121,43.384739 289.968964,36.028839 
	C289.121552,29.827471 283.869904,25.948574 278.148560,27.329353 
	C274.266357,28.266285 270.851196,31.138508 267.983368,32.726509 
	C264.810760,30.980824 261.382843,27.724995 257.746552,27.472775 
	C253.987564,27.212042 250.026230,29.868769 246.243134,31.217281 
	C246.199615,30.831255 246.046082,29.469273 245.864548,27.858870 
	C244.077972,28.055058 242.693436,28.207098 241.346741,28.354982 
	C241.346741,38.701080 241.346741,48.641819 241.346741,58.737328 
	C243.079132,58.737328 244.618423,58.737328 246.590546,58.737328 
	C246.590546,52.805237 246.288086,47.141731 246.674500,41.525627 
	C247.071259,35.759377 250.987701,32.033951 255.721024,32.077164 
	C260.490387,32.120712 263.085388,35.287880 263.290405,41.824020 
	C263.466797,47.447498 263.326996,53.080894 263.326996,59.088356 
	C265.396393,58.956882 266.949249,58.858227 268.895325,58.734589 
	C268.895325,52.527184 268.641541,46.707188 268.972015,40.920563 
	C269.259674,35.883717 273.112732,32.152328 277.521973,32.106842 
	C282.702606,32.053383 284.841949,35.260513 285.571198,40.837315 
M346.276703,54.204800 
	C346.179199,48.710205 346.383698,43.188427 345.892334,37.729279 
	C345.469116,33.027676 343.290070,29.193045 338.246094,27.702400 
	C332.958832,26.139864 328.786407,27.899569 325.278961,31.795725 
	C324.588806,32.562359 324.080872,33.493053 323.396423,34.481667 
	C316.991425,24.465054 309.792358,25.399794 302.072937,32.202312 
	C301.824036,30.653332 301.624481,29.411386 301.428070,28.189014 
	C299.795441,28.189014 298.519287,28.189014 297.037537,28.189014 
	C297.037537,38.448826 297.037537,48.531921 297.037537,58.660191 
	C298.761169,58.660191 300.279968,58.660191 301.988373,58.660191 
	C301.988373,52.991692 301.852661,47.669636 302.023956,42.357479 
	C302.221527,36.230404 306.244781,31.938423 311.347107,32.062584 
	C316.246552,32.181812 318.823608,35.607693 318.934967,42.405788 
	C319.024231,47.854378 318.953033,53.305599 318.953033,59.072033 
	C321.000916,58.952869 322.528168,58.864002 324.522369,58.747967 
	C324.522369,52.084808 324.006805,45.880741 324.680328,39.808575 
	C325.251587,34.658409 329.729889,31.630966 334.153442,32.089851 
	C338.382538,32.528568 340.828644,35.546387 341.006104,41.032169 
	C341.183807,46.524658 341.079865,52.026020 341.135345,57.523132 
	C341.139862,57.973133 341.421112,58.420345 341.628754,59.030315 
	C343.129456,58.963921 344.583862,58.899574 346.276672,58.824680 
	C346.276672,57.427505 346.276672,56.271500 346.276703,54.204800 
M357.383759,50.762314 
	C356.660339,49.010632 355.936951,47.258945 354.961029,44.895775 
	C364.069702,44.895775 372.324738,44.895775 380.532684,44.895775 
	C381.498505,35.817467 376.287537,28.709396 367.938019,27.290794 
	C359.983826,25.939360 352.109802,31.553705 350.254303,39.899689 
	C348.331390,48.548920 353.453766,56.765549 361.727020,59.362236 
	C367.844360,61.282265 378.554688,57.207802 379.389069,49.315937 
	C377.226471,49.884407 374.804443,49.823544 373.453674,50.996395 
	C367.475372,56.187237 363.784851,56.427212 357.383759,50.762314 
M220.908020,27.220181 
	C211.156708,29.613897 206.123642,36.209026 207.024582,45.412460 
	C207.771606,53.043552 213.626541,58.973530 221.232239,59.802219 
	C228.195557,60.560917 234.344238,56.568668 236.745224,48.475281 
	C233.670029,50.030495 231.316727,50.771664 229.536575,52.218185 
	C226.244995,54.892864 222.803818,55.762547 218.914093,54.155220 
	C214.968750,52.524914 212.704056,49.635277 212.642471,44.772797 
	C221.250641,44.772797 229.515320,44.772797 237.748444,44.772797 
	C238.218414,33.945507 232.418793,27.703632 220.908020,27.220181 
M192.511993,37.053661 
	C189.746246,37.053661 186.980515,37.053661 184.357910,37.053661 
	C184.357910,31.893959 184.357910,27.332806 184.357910,22.540394 
	C191.679001,22.540394 198.652969,22.540394 205.835663,22.540394 
	C205.835663,20.858522 205.835663,19.425312 205.835663,18.069431 
	C196.714951,18.069431 187.791107,18.069431 178.875168,18.069431 
	C178.875168,31.823948 178.875168,45.273720 178.875168,58.743790 
	C180.646622,58.743790 182.215210,58.743790 184.108307,58.743790 
	C184.108307,53.032120 184.108307,47.586472 184.108307,41.744915 
	C190.525864,41.744915 196.615097,41.744915 203.072678,41.744915 
	C202.993317,39.957653 202.933105,38.601711 202.864380,37.053661 
	C199.462463,37.053661 196.477295,37.053661 192.511993,37.053661 
M128.024277,21.410418 
	C127.965630,20.271173 127.906975,19.131929 127.850914,18.042879 
	C118.741974,18.042879 109.835136,18.042879 100.823303,18.042879 
	C100.823303,31.747229 100.823303,45.174152 100.823303,58.809669 
	C102.538475,58.809669 104.105667,58.809669 106.142258,58.809669 
	C106.142258,53.068947 106.142258,47.493958 106.142258,41.568691 
	C112.698563,41.568691 118.790733,41.568691 124.909370,41.568691 
	C124.909370,39.932762 124.909370,38.670502 124.909370,37.048210 
	C118.612961,37.048210 112.524857,37.048210 106.240112,37.048210 
	C106.240112,32.122383 106.240112,27.559673 106.240112,22.245226 
	C113.550110,22.245226 120.634438,22.245226 128.024277,21.410418 
M171.976959,41.797485 
	C171.693665,35.924824 170.673431,30.334627 164.279510,28.021574 
	C158.334824,25.871035 153.194748,27.437918 149.067825,32.264439 
	C148.919495,32.437912 148.519119,32.395878 148.120483,32.478172 
	C148.040512,31.054871 147.961609,29.650898 147.881973,28.233801 
	C146.132431,28.233801 144.721344,28.233801 143.210785,28.233801 
	C143.210785,38.519169 143.210785,48.585796 143.210785,58.676132 
	C144.967026,58.676132 146.488327,58.676132 148.165924,58.676132 
	C148.165924,53.537926 148.098297,48.729797 148.181717,43.924297 
	C148.307846,36.656773 152.190369,32.099140 158.159134,32.054409 
	C163.937347,32.011105 166.716293,35.652775 166.809067,43.535446 
	C166.868942,48.623013 166.820312,53.711857 166.820312,58.791306 
	C168.822067,58.791306 170.233246,58.791306 171.998352,58.791306 
	C171.998352,53.298664 171.998352,48.015381 171.976959,41.797485 
M53.088108,56.380615 
	C53.086651,48.583126 53.217678,40.781197 52.956963,32.992386 
	C52.912045,31.650503 51.202335,30.364346 50.261635,29.052443 
	C49.141754,30.003347 47.072090,30.931498 47.048679,31.908672 
	C46.810368,41.855511 46.829185,51.811935 47.037823,61.760185 
	C47.056435,62.647552 48.914543,64.176270 49.916756,64.174988 
	C50.952999,64.173668 52.447666,62.861359 52.902599,61.772045 
	C53.436577,60.493488 53.066254,58.837261 53.088108,56.380615 
M136.891068,34.615700 
	C136.891068,32.498703 136.891068,30.381706 136.891068,27.923649 
	C134.819122,28.030287 133.261017,28.110481 131.665039,28.192623 
	C131.665039,38.644348 131.665039,48.703842 131.665039,59.098820 
	C133.503876,58.995255 135.065674,58.907295 136.891068,58.804489 
	C136.891068,50.814545 136.891068,43.203236 136.891068,34.615700 
M61.996994,33.001236 
	C61.999680,37.622307 61.774582,42.262379 62.157406,46.851738 
	C62.259323,48.073521 64.224846,49.139847 65.334747,50.277546 
	C66.249878,49.134895 67.872993,48.040421 67.954620,46.841045 
	C68.267670,42.241085 68.254913,37.597454 67.982040,32.992733 
	C67.904053,31.676859 66.536934,30.437380 65.760941,29.162867 
	C64.511292,30.148502 63.261639,31.134138 61.996994,33.001236 
M131.769806,16.157375 
	C131.854431,17.877975 131.625427,19.718840 132.211487,21.247154 
	C132.391327,21.716141 135.154877,21.836184 136.090302,21.186855 
	C136.965225,20.579519 137.577377,17.789375 137.281372,17.605171 
	C135.834930,16.705080 134.045898,16.355562 131.769806,16.157375 
z"/>
<path fill="#CD72E7" opacity="1.000000" stroke="none" 
	d="
M31.073458,38.317383 
	C21.131910,37.710621 21.131908,37.710621 21.131901,47.725002 
	C21.131899,51.206436 21.131901,54.687870 21.131901,58.585381 
	C17.135891,58.585381 13.455852,58.585381 9.195895,58.585381 
	C9.195895,50.447556 9.195492,42.505829 9.196011,34.564098 
	C9.196521,26.746450 9.075607,18.925034 9.316106,11.114758 
	C9.357528,9.769547 10.900901,7.354420 11.811371,7.325112 
	C20.732763,7.037938 29.667068,7.151961 38.882252,7.151961 
	C38.882252,10.855721 38.882252,13.948474 38.882252,17.780357 
	C33.118736,17.780357 27.415157,17.780357 21.434340,17.780357 
	C21.434340,21.420900 21.434340,24.329271 21.434340,27.805468 
	C26.801764,27.805468 32.035213,27.805468 37.773804,27.805468 
	C37.773804,31.429789 37.773804,34.510258 37.075279,37.881874 
	C34.608986,38.221146 32.841221,38.269264 31.073458,38.317383 
z"/>
<path fill="#111112" opacity="1.000000" stroke="none" 
	d="
M285.503937,40.387756 
	C284.841949,35.260513 282.702606,32.053383 277.521973,32.106842 
	C273.112732,32.152328 269.259674,35.883717 268.972015,40.920563 
	C268.641541,46.707188 268.895325,52.527184 268.895325,58.734589 
	C266.949249,58.858227 265.396393,58.956882 263.326996,59.088356 
	C263.326996,53.080894 263.466797,47.447498 263.290405,41.824020 
	C263.085388,35.287880 260.490387,32.120712 255.721024,32.077164 
	C250.987701,32.033951 247.071259,35.759377 246.674500,41.525627 
	C246.288086,47.141731 246.590546,52.805237 246.590546,58.737328 
	C244.618423,58.737328 243.079132,58.737328 241.346741,58.737328 
	C241.346741,48.641819 241.346741,38.701080 241.346741,28.354982 
	C242.693436,28.207098 244.077972,28.055058 245.864548,27.858870 
	C246.046082,29.469273 246.199615,30.831255 246.243134,31.217281 
	C250.026230,29.868769 253.987564,27.212042 257.746552,27.472775 
	C261.382843,27.724995 264.810760,30.980824 267.983368,32.726509 
	C270.851196,31.138508 274.266357,28.266285 278.148560,27.329353 
	C283.869904,25.948574 289.121552,29.827471 289.968964,36.028839 
	C290.974121,43.384739 290.897766,50.888432 291.312042,58.743484 
	C289.189484,58.867580 287.639435,58.958202 285.571198,59.079121 
	C285.571198,52.756847 285.571198,46.797081 285.503937,40.387756 
z"/>
<path fill="#090909" opacity="1.000000" stroke="none" 
	d="
M346.276672,54.660145 
	C346.276672,56.271500 346.276672,57.427505 346.276672,58.824680 
	C344.583862,58.899574 343.129456,58.963921 341.628754,59.030315 
	C341.421112,58.420345 341.139862,57.973133 341.135345,57.523132 
	C341.079865,52.026020 341.183807,46.524658 341.006104,41.032169 
	C340.828644,35.546387 338.382538,32.528568 334.153442,32.089851 
	C329.729889,31.630966 325.251587,34.658409 324.680328,39.808575 
	C324.006805,45.880741 324.522369,52.084808 324.522369,58.747967 
	C322.528168,58.864002 321.000916,58.952869 318.953033,59.072033 
	C318.953033,53.305599 319.024231,47.854378 318.934967,42.405788 
	C318.823608,35.607693 316.246552,32.181812 311.347107,32.062584 
	C306.244781,31.938423 302.221527,36.230404 302.023956,42.357479 
	C301.852661,47.669636 301.988373,52.991692 301.988373,58.660191 
	C300.279968,58.660191 298.761169,58.660191 297.037537,58.660191 
	C297.037537,48.531921 297.037537,38.448826 297.037537,28.189014 
	C298.519287,28.189014 299.795441,28.189014 301.428070,28.189014 
	C301.624481,29.411386 301.824036,30.653332 302.072937,32.202312 
	C309.792358,25.399794 316.991425,24.465054 323.396423,34.481667 
	C324.080872,33.493053 324.588806,32.562359 325.278961,31.795725 
	C328.786407,27.899569 332.958832,26.139864 338.246094,27.702400 
	C343.290070,29.193045 345.469116,33.027676 345.892334,37.729279 
	C346.383698,43.188427 346.179199,48.710205 346.276672,54.660145 
z"/>
<path fill="#101010" opacity="1.000000" stroke="none" 
	d="
M357.656189,51.057140 
	C363.784851,56.427212 367.475372,56.187237 373.453674,50.996395 
	C374.804443,49.823544 377.226471,49.884407 379.389069,49.315937 
	C378.554688,57.207802 367.844360,61.282265 361.727020,59.362236 
	C353.453766,56.765549 348.331390,48.548920 350.254303,39.899689 
	C352.109802,31.553705 359.983826,25.939360 367.938019,27.290794 
	C376.287537,28.709396 381.498505,35.817467 380.532684,44.895775 
	C372.324738,44.895775 364.069702,44.895775 354.961029,44.895775 
	C355.936951,47.258945 356.660339,49.010632 357.656189,51.057140 
M359.604706,33.960159 
	C358.229584,35.748631 356.854492,37.537102 355.070068,39.857933 
	C362.598267,39.857933 368.816010,39.857933 375.110992,39.857933 
	C373.181000,32.707470 367.917633,30.560350 359.604706,33.960159 
z"/>
<path fill="#101010" opacity="1.000000" stroke="none" 
	d="
M221.319244,27.181387 
	C232.418793,27.703632 238.218414,33.945507 237.748444,44.772797 
	C229.515320,44.772797 221.250641,44.772797 212.642471,44.772797 
	C212.704056,49.635277 214.968750,52.524914 218.914093,54.155220 
	C222.803818,55.762547 226.244995,54.892864 229.536575,52.218185 
	C231.316727,50.771664 233.670029,50.030495 236.745224,48.475281 
	C234.344238,56.568668 228.195557,60.560917 221.232239,59.802219 
	C213.626541,58.973530 207.771606,53.043552 207.024582,45.412460 
	C206.123642,36.209026 211.156708,29.613897 221.319244,27.181387 
M213.899872,36.853722 
	C213.573944,37.839722 213.248016,38.825718 212.903702,39.867310 
	C219.589233,39.867310 225.807800,39.867310 232.099213,39.867310 
	C229.825333,31.199093 221.128159,29.534384 213.899872,36.853722 
z"/>
<path fill="#0C0B0C" opacity="1.000000" stroke="none" 
	d="
M193.002075,37.053661 
	C196.477295,37.053661 199.462463,37.053661 202.864380,37.053661 
	C202.933105,38.601711 202.993317,39.957653 203.072678,41.744915 
	C196.615097,41.744915 190.525864,41.744915 184.108307,41.744915 
	C184.108307,47.586472 184.108307,53.032120 184.108307,58.743790 
	C182.215210,58.743790 180.646622,58.743790 178.875168,58.743790 
	C178.875168,45.273720 178.875168,31.823948 178.875168,18.069431 
	C187.791107,18.069431 196.714951,18.069431 205.835663,18.069431 
	C205.835663,19.425312 205.835663,20.858522 205.835663,22.540394 
	C198.652969,22.540394 191.679001,22.540394 184.357910,22.540394 
	C184.357910,27.332806 184.357910,31.893959 184.357910,37.053661 
	C186.980515,37.053661 189.746246,37.053661 193.002075,37.053661 
z"/>
<path fill="#0C0B0C" opacity="1.000000" stroke="none" 
	d="
M127.871521,21.827822 
	C120.634438,22.245226 113.550110,22.245226 106.240112,22.245226 
	C106.240112,27.559673 106.240112,32.122383 106.240112,37.048210 
	C112.524857,37.048210 118.612961,37.048210 124.909370,37.048210 
	C124.909370,38.670502 124.909370,39.932762 124.909370,41.568691 
	C118.790733,41.568691 112.698563,41.568691 106.142258,41.568691 
	C106.142258,47.493958 106.142258,53.068947 106.142258,58.809669 
	C104.105667,58.809669 102.538475,58.809669 100.823303,58.809669 
	C100.823303,45.174152 100.823303,31.747229 100.823303,18.042879 
	C109.835136,18.042879 118.741974,18.042879 127.850914,18.042879 
	C127.906975,19.131929 127.965630,20.271173 127.871521,21.827822 
z"/>
<path fill="#070707" opacity="1.000000" stroke="none" 
	d="
M171.987656,42.264793 
	C171.998352,48.015381 171.998352,53.298664 171.998352,58.791306 
	C170.233246,58.791306 168.822067,58.791306 166.820312,58.791306 
	C166.820312,53.711857 166.868942,48.623013 166.809067,43.535446 
	C166.716293,35.652775 163.937347,32.011105 158.159134,32.054409 
	C152.190369,32.099140 148.307846,36.656773 148.181717,43.924297 
	C148.098297,48.729797 148.165924,53.537926 148.165924,58.676132 
	C146.488327,58.676132 144.967026,58.676132 143.210785,58.676132 
	C143.210785,48.585796 143.210785,38.519169 143.210785,28.233801 
	C144.721344,28.233801 146.132431,28.233801 147.881973,28.233801 
	C147.961609,29.650898 148.040512,31.054871 148.120483,32.478172 
	C148.519119,32.395878 148.919495,32.437912 149.067825,32.264439 
	C153.194748,27.437918 158.334824,25.871035 164.279510,28.021574 
	C170.673431,30.334627 171.693665,35.924824 171.987656,42.264793 
z"/>
<path fill="#0799B4" opacity="1.000000" stroke="none" 
	d="
M31.071014,38.757645 
	C32.841221,38.269264 34.608986,38.221146 36.823647,38.228447 
	C37.279182,51.885166 37.312199,65.486542 37.271706,79.087685 
	C37.265202,81.272835 37.869232,84.531700 34.273796,83.868095 
	C32.946507,83.623116 31.226664,80.722160 31.194229,79.004097 
	C30.943804,65.739304 31.063557,52.467518 31.071014,38.757645 
z"/>
<path fill="#0298B3" opacity="1.000000" stroke="none" 
	d="
M53.088120,56.862724 
	C53.066254,58.837261 53.436577,60.493488 52.902599,61.772045 
	C52.447666,62.861359 50.952999,64.173668 49.916756,64.174988 
	C48.914543,64.176270 47.056435,62.647552 47.037823,61.760185 
	C46.829185,51.811935 46.810368,41.855511 47.048679,31.908672 
	C47.072090,30.931498 49.141754,30.003347 50.261635,29.052444 
	C51.202335,30.364346 52.912045,31.650503 52.956963,32.992386 
	C53.217678,40.781197 53.086651,48.583126 53.088120,56.862724 
z"/>
<path fill="#222223" opacity="1.000000" stroke="none" 
	d="
M136.891068,35.103813 
	C136.891068,43.203236 136.891068,50.814545 136.891068,58.804489 
	C135.065674,58.907295 133.503876,58.995255 131.665039,59.098820 
	C131.665039,48.703842 131.665039,38.644348 131.665039,28.192623 
	C133.261017,28.110481 134.819122,28.030287 136.891068,27.923649 
	C136.891068,30.381706 136.891068,32.498703 136.891068,35.103813 
z"/>
<path fill="#0398B3" opacity="1.000000" stroke="none" 
	d="
M62.004494,32.560505 
	C63.261639,31.134138 64.511292,30.148502 65.760941,29.162868 
	C66.536934,30.437380 67.904053,31.676859 67.982040,32.992733 
	C68.254913,37.597454 68.267670,42.241085 67.954620,46.841045 
	C67.872993,48.040421 66.249878,49.134895 65.334747,50.277546 
	C64.224846,49.139847 62.259323,48.073521 62.157406,46.851738 
	C61.774582,42.262379 61.999680,37.622307 62.004494,32.560505 
z"/>
<path fill="#181818" opacity="1.000000" stroke="none" 
	d="
M132.073914,15.984359 
	C134.045898,16.355562 135.834930,16.705080 137.281372,17.605171 
	C137.577377,17.789375 136.965225,20.579519 136.090302,21.186855 
	C135.154877,21.836184 132.391327,21.716141 132.211487,21.247154 
	C131.625427,19.718840 131.854431,17.877975 132.073914,15.984359 
z"/>
<path fill="#F7F4F8" opacity="1.000000" stroke="none" 
	d="
M359.925293,33.736122 
	C367.917633,30.560350 373.181000,32.707470 375.110992,39.857933 
	C368.816010,39.857933 362.598267,39.857933 355.070068,39.857933 
	C356.854492,37.537102 358.229584,35.748631 359.925293,33.736122 
z"/>
<path fill="#F7F4F8" opacity="1.000000" stroke="none" 
	d="
M214.120331,36.515015 
	C221.128159,29.534384 229.825333,31.199093 232.099213,39.867310 
	C225.807800,39.867310 219.589233,39.867310 212.903702,39.867310 
	C213.248016,38.825718 213.573944,37.839722 214.120331,36.515015 
z"/>
</svg>