<svg xmlns="http://www.w3.org/2000/svg" version="1.1" viewBox="0 0 395 104">
<path d="M0 0 C130.35 0 260.7 0 395 0 C395 34.32 395 68.64 395 104 C264.65 104 134.3 104 0 104 C0 69.68 0 35.36 0 0 Z " fill="#FDFDFD" transform="translate(0,0)"/>
<path d="M0 0 C10.23 0 20.46 0 31 0 C31 3.63 31 7.26 31 11 C24.73 11 18.46 11 12 11 C12 14.3 12 17.6 12 21 C17.61 21 23.22 21 29 21 C29.02466033 28.65380618 29.04284104 36.3075894 29.05493164 43.96142578 C29.0599703 46.56689863 29.0668013 49.17236863 29.07543945 51.77783203 C29.08752544 55.51595764 29.09323288 59.25404597 29.09765625 62.9921875 C29.10281754 64.16304901 29.10797882 65.33391052 29.11329651 66.54025269 C29.11340981 68.161707 29.11340981 68.161707 29.11352539 69.81591797 C29.115746 70.77078094 29.11796661 71.72564392 29.12025452 72.70944214 C29 75 29 75 28 77 C26.33388095 77.042721 24.66617115 77.04063832 23 77 C22 76 22 76 21.87974548 74.17137146 C21.88196609 73.37417191 21.88418671 72.57697235 21.88647461 71.75561523 C21.88655014 70.85475693 21.88662567 69.95389862 21.88670349 69.02574158 C21.89186478 68.04658279 21.89702606 67.06742401 21.90234375 66.05859375 C21.9037587 65.06118668 21.90517365 64.0637796 21.90663147 63.03614807 C21.91224886 59.83656876 21.92480429 56.63705831 21.9375 53.4375 C21.94251276 51.27408955 21.94707605 49.11067801 21.95117188 46.94726562 C21.96222394 41.63148371 21.97950021 36.31575354 22 31 C18.7 31 15.4 31 12 31 C12 37.93 12 44.86 12 52 C8.04 52 4.08 52 0 52 C0 34.84 0 17.68 0 0 Z " fill="#CB76E6" transform="translate(15,17)"/>
<path d="M0 0 C5.68421053 3.05263158 5.68421053 3.05263158 7 7 C7.66 7 8.32 7 9 7 C9.2475 6.401875 9.495 5.80375 9.75 5.1875 C11.2542674 2.55503205 12.32507908 1.4459032 15 0 C18.72703559 -0.4065857 21.219631 -0.32666609 24.6875 1.125 C28.46412489 4.18712829 30.73001397 6.77646483 31.32104492 11.64404297 C31.39326911 14.73016999 31.34879083 17.78968642 31.25 20.875 C31.23195313 21.94492187 31.21390625 23.01484375 31.1953125 24.1171875 C31.14837439 26.74572178 31.08272933 29.37238913 31 32 C29.35 32 27.7 32 26 32 C25.9906543 31.39003174 25.98130859 30.78006348 25.97167969 30.15161133 C25.91778674 27.37110513 25.83417931 24.59224738 25.75 21.8125 C25.73582031 20.85279297 25.72164063 19.89308594 25.70703125 18.90429688 C25.55466085 14.50079241 25.42010385 11.70721884 23.13671875 7.86328125 C21.08490833 5.76935767 21.08490833 5.76935767 18.0625 5.375 C13.82210444 6.24038685 12.6054111 7.53618359 10 11 C9.25163436 14.6010246 9.20967806 18.14326337 9.1875 21.8125 C9.16236328 22.79154297 9.13722656 23.77058594 9.11132812 24.77929688 C9.05261337 27.18660197 9.0162202 29.59209562 9 32 C7.02 32 5.04 32 3 32 C2.98541748 31.31897217 2.97083496 30.63794434 2.95581055 29.9362793 C2.88137304 26.85277785 2.78469917 23.77036433 2.6875 20.6875 C2.66494141 19.61564453 2.64238281 18.54378906 2.61914062 17.43945312 C2.5659668 15.89741211 2.5659668 15.89741211 2.51171875 14.32421875 C2.48553467 13.37635498 2.45935059 12.42849121 2.43237305 11.4519043 C1.92822389 8.5929715 1.34623548 7.67092267 -1 6 C-4.45749949 5.33323122 -4.45749949 5.33323122 -8 6 C-11.59046176 9.59046176 -13.0838701 12.36864491 -13.31640625 17.3515625 C-13.35830078 18.20234375 -13.40019531 19.053125 -13.44335938 19.9296875 C-13.48267578 20.81914063 -13.52199219 21.70859375 -13.5625 22.625 C-13.62727539 23.97078125 -13.62727539 23.97078125 -13.69335938 25.34375 C-13.79956861 27.56234283 -13.90161194 29.7810488 -14 32 C-15.65 32 -17.3 32 -19 32 C-19 21.77 -19 11.54 -19 1 C-17.35 1 -15.7 1 -14 1 C-13.67 2.32 -13.34 3.64 -13 5 C-12.154375 4.175 -11.30875 3.35 -10.4375 2.5 C-6.9509096 -0.37951348 -4.53911378 -0.72950043 0 0 Z " fill="#121212" transform="translate(266,37)"/>
<path d="M0 0 C3.93792318 2.56821077 6.74612583 5.61725165 8.875 9.875 C8.875 12.185 8.875 14.495 8.875 16.875 C0.295 16.875 -8.285 16.875 -17.125 16.875 C-13.33381593 24.48786287 -13.33381593 24.48786287 -10.125 25.875 C-5.9538727 26.26850258 -3.8946947 26.46143406 -0.5 23.875 C0.28375 23.215 1.0675 22.555 1.875 21.875 C4.6875 21.625 4.6875 21.625 6.875 21.875 C6.61933121 25.32652861 5.61302926 26.11988569 3 28.5625 C-1.50033636 31.89274891 -4.60414179 32.24929547 -10.125 31.875 C-15.38218726 29.98241259 -17.95502532 27.31296456 -21.125 22.875 C-22.91589289 17.30963032 -23.10043497 11.78974271 -20.4375 6.5625 C-14.6592409 -0.15277409 -8.78856304 -3.16388269 0 0 Z " fill="#101010" transform="translate(378.125,38.125)"/>
<path d="M0 0 C3.93792318 2.56821077 6.74612583 5.61725165 8.875 9.875 C8.875 12.185 8.875 14.495 8.875 16.875 C0.295 16.875 -8.285 16.875 -17.125 16.875 C-13.33381593 24.48786287 -13.33381593 24.48786287 -10.125 25.875 C-5.9538727 26.26850258 -3.8946947 26.46143406 -0.5 23.875 C0.28375 23.215 1.0675 22.555 1.875 21.875 C4.6875 21.625 4.6875 21.625 6.875 21.875 C6.61933121 25.32652861 5.61302926 26.11988569 3 28.5625 C-1.50033636 31.89274891 -4.60414179 32.24929547 -10.125 31.875 C-15.38218726 29.98241259 -17.95502532 27.31296456 -21.125 22.875 C-22.91589289 17.30963032 -23.10043497 11.78974271 -20.4375 6.5625 C-14.6592409 -0.15277409 -8.78856304 -3.16388269 0 0 Z " fill="#101010" transform="translate(235.125,38.125)"/>
<path d="M0 0 C3.27099189 1.56115522 5.49613968 3.43138467 8 6 C8.42410156 5.566875 8.84820312 5.13375 9.28515625 4.6875 C12.40059731 1.72954277 14.24271767 0.13285655 18.5625 -0.625 C22.62978591 0.11450653 24.83995808 1.35438351 28 4 C30.09433345 7.24015594 30.23588863 9.82646848 30.1953125 13.640625 C30.18886719 14.71054687 30.18242187 15.78046875 30.17578125 16.8828125 C30.15902344 17.99398437 30.14226562 19.10515625 30.125 20.25 C30.11597656 21.37664063 30.10695313 22.50328125 30.09765625 23.6640625 C30.07410658 26.44292365 30.0412168 29.2213539 30 32 C28.35 32 26.7 32 25 32 C24.9906543 31.35450195 24.98130859 30.70900391 24.97167969 30.04394531 C24.91790899 27.11186056 24.8342766 24.18135992 24.75 21.25 C24.73582031 20.23421875 24.72164063 19.2184375 24.70703125 18.171875 C24.60816168 12.39216365 24.60816168 12.39216365 22.140625 7.328125 C19.17938303 5.49085808 17.42121736 5.42979711 14 6 C11.69724444 7.8670991 10.32176129 9.35647741 9 12 C8.84876169 13.5195764 8.75118307 15.04472502 8.68359375 16.5703125 C8.64169922 17.46621094 8.59980469 18.36210938 8.55664062 19.28515625 C8.51732422 20.22230469 8.47800781 21.15945312 8.4375 22.125 C8.39431641 23.06988281 8.35113281 24.01476562 8.30664062 24.98828125 C8.20040928 27.32537092 8.09836824 29.6625683 8 32 C6.35 32 4.7 32 3 32 C2.9906543 31.35450195 2.98130859 30.70900391 2.97167969 30.04394531 C2.91790899 27.11186056 2.8342766 24.18135992 2.75 21.25 C2.73582031 20.23421875 2.72164063 19.2184375 2.70703125 18.171875 C2.60816168 12.39216365 2.60816168 12.39216365 0.140625 7.328125 C-2.82061697 5.49085808 -4.57878264 5.42979711 -8 6 C-10.84780619 8.23206431 -11.84997666 9.54992999 -13 13 C-13.14573058 14.47965926 -13.24663268 15.96403843 -13.31640625 17.44921875 C-13.35830078 18.29677734 -13.40019531 19.14433594 -13.44335938 20.01757812 C-13.48267578 20.89865234 -13.52199219 21.77972656 -13.5625 22.6875 C-13.60568359 23.58017578 -13.64886719 24.47285156 -13.69335938 25.39257812 C-13.79935353 27.59490108 -13.90142051 29.79733473 -14 32 C-15.65 32 -17.3 32 -19 32 C-19 21.77 -19 11.54 -19 1 C-17.35 1 -15.7 1 -14 1 C-13.67 1.99 -13.34 2.98 -13 4 C-12.154375 3.34 -11.30875 2.68 -10.4375 2 C-6.4734284 -0.30636893 -4.5102277 -0.57402898 0 0 Z " fill="#090909" transform="translate(322,37)"/>
<path d="M0 0 C8.91 0 17.82 0 27 0 C27 1.65 27 3.3 27 5 C19.74 5 12.48 5 5 5 C5 9.62 5 14.24 5 19 C11.27 19 17.54 19 24 19 C24 20.65 24 22.3 24 24 C17.73 24 11.46 24 5 24 C5 29.61 5 35.22 5 41 C3.35 41 1.7 41 0 41 C0 27.47 0 13.94 0 0 Z " fill="#0B0B0B" transform="translate(185,28)"/>
<path d="M0 0 C8.91 0 17.82 0 27 0 C27 1.65 27 3.3 27 5 C19.74 5 12.48 5 5 5 C5 9.62 5 14.24 5 19 C11.27 19 17.54 19 24 19 C24 20.65 24 22.3 24 24 C17.73 24 11.46 24 5 24 C5 29.61 5 35.22 5 41 C3.35 41 1.7 41 0 41 C0 27.47 0 13.94 0 0 Z " fill="#0B0B0B" transform="translate(107,28)"/>
<path d="M0 0 C4.45769865 2.3145743 6.77462888 4.53674887 9 9 C9.34057617 11.67895508 9.34057617 11.67895508 9.29296875 14.51953125 C9.28330078 15.54111328 9.27363281 16.56269531 9.26367188 17.61523438 C9.23853516 18.67033203 9.21339844 19.72542969 9.1875 20.8125 C9.16719727 22.42415039 9.16719727 22.42415039 9.14648438 24.06835938 C9.11122577 26.71275455 9.06194366 29.35611748 9 32 C7.35 32 5.7 32 4 32 C3.99589111 31.39003174 3.99178223 30.78006348 3.98754883 30.15161133 C3.95452425 27.37094208 3.88387432 24.59243843 3.8125 21.8125 C3.80669922 20.85279297 3.80089844 19.89308594 3.79492188 18.90429688 C3.64743333 14.16827587 3.55124457 11.73256303 0.63671875 7.859375 C-1.88721809 5.80592479 -1.88721809 5.80592479 -5 5.4375 C-8.65907504 6.12357657 -10.35167676 7.42734314 -13 10 C-14.17469444 12.34938888 -14.20034889 13.95073205 -14.31640625 16.5703125 C-14.35830078 17.46621094 -14.40019531 18.36210938 -14.44335938 19.28515625 C-14.48267578 20.22230469 -14.52199219 21.15945312 -14.5625 22.125 C-14.62727539 23.54232422 -14.62727539 23.54232422 -14.69335938 24.98828125 C-14.79959072 27.32537092 -14.90163176 29.6625683 -15 32 C-16.65 32 -18.3 32 -20 32 C-20 21.77 -20 11.54 -20 1 C-18.35 1 -16.7 1 -15 1 C-14.67 2.32 -14.34 3.64 -14 5 C-13.21625 4.360625 -12.4325 3.72125 -11.625 3.0625 C-7.53624167 -0.15009583 -5.22636279 -0.43553023 0 0 Z " fill="#060606" transform="translate(169,37)"/>
<path d="M0 0 C1.98 0 3.96 0 6 0 C6 15.18 6 30.36 6 46 C4.35 46 2.7 46 1 46 C0 45 0 45 -0.12025452 43.17137146 C-0.11803391 42.37417191 -0.11581329 41.57697235 -0.11352539 40.75561523 C-0.11344986 39.85475693 -0.11337433 38.95389862 -0.11329651 38.02574158 C-0.10813522 37.04658279 -0.10297394 36.06742401 -0.09765625 35.05859375 C-0.0962413 34.06118668 -0.09482635 33.0637796 -0.09336853 32.03614807 C-0.08775114 28.83656876 -0.07519571 25.63705831 -0.0625 22.4375 C-0.05748724 20.27408955 -0.05292395 18.11067801 -0.04882812 15.94726562 C-0.03777607 10.63148675 -0.02102104 5.31574829 0 0 Z " fill="#0699B4" transform="translate(37,48)"/>
<path d="M0 0 C1.67542976 0.28604898 3.34385343 0.61781233 5 1 C5.02465288 5.68139254 5.04283739 10.36274759 5.05493164 15.04418945 C5.05997157 16.63794614 5.0668035 18.23169819 5.07543945 19.82543945 C5.08751999 22.11150253 5.09323155 24.39750467 5.09765625 26.68359375 C5.10281754 27.40026718 5.10797882 28.11694061 5.11329651 28.85533142 C5.11349263 30.57063672 5.06192007 32.28581266 5 34 C4 35 4 35 1.4375 35.0625 C0.633125 35.041875 -0.17125 35.02125 -1 35 C-1.0246519 30.17619198 -1.04283693 25.35242033 -1.05493164 20.52856445 C-1.05997174 18.88630536 -1.06680378 17.24405077 -1.07543945 15.60180664 C-1.08751926 13.24624521 -1.09323139 10.89074291 -1.09765625 8.53515625 C-1.10281754 7.79660904 -1.10797882 7.05806183 -1.11329651 6.2971344 C-1.1134925 4.53101912 -1.06194719 2.76502854 -1 1 C-0.67 0.67 -0.34 0.34 0 0 Z " fill="#0197B2" transform="translate(54,39)"/>
<path d="M0 0 C1.65 0 3.3 0 5 0 C5 10.23 5 20.46 5 31 C3.35 31 1.7 31 0 31 C0 20.77 0 10.54 0 0 Z " fill="#0E0E0E" transform="translate(138,38)"/>
<path d="M0 0 C1.65 0.33 3.3 0.66 5 1 C5 7.27 5 13.54 5 20 C3.35 20.33 1.7 20.66 0 21 C-1.55606751 19.44393249 -1.12970769 17.94042629 -1.1328125 15.78125 C-1.13410156 14.93175781 -1.13539062 14.08226562 -1.13671875 13.20703125 C-1.13285156 12.31371094 -1.12898438 11.42039062 -1.125 10.5 C-1.12886719 9.60667969 -1.13273437 8.71335937 -1.13671875 7.79296875 C-1.13542969 6.94347656 -1.13414063 6.09398437 -1.1328125 5.21875 C-1.13168457 4.43435547 -1.13055664 3.64996094 -1.12939453 2.84179688 C-1 1 -1 1 0 0 Z " fill="#0498B3" transform="translate(69,39)"/>
<path d="M0 0 C2.93339636 0.8646952 4.39040014 2.09919206 6.09375 4.6171875 C6.09375 5.6071875 6.09375 6.5971875 6.09375 7.6171875 C-0.17625 7.6171875 -6.44625 7.6171875 -12.90625 7.6171875 C-11.90625 3.6171875 -11.90625 3.6171875 -9.90625 1.3046875 C-6.20757438 -0.77581754 -4.10478738 -0.67044861 0 0 Z " fill="#F8F8F8" transform="translate(374.90625,42.3828125)"/>
<path d="M0 0 C2.93339636 0.8646952 4.39040014 2.09919206 6.09375 4.6171875 C6.09375 5.6071875 6.09375 6.5971875 6.09375 7.6171875 C-0.17625 7.6171875 -6.44625 7.6171875 -12.90625 7.6171875 C-11.90625 3.6171875 -11.90625 3.6171875 -9.90625 1.3046875 C-6.20757438 -0.77581754 -4.10478738 -0.67044861 0 0 Z " fill="#F8F8F8" transform="translate(231.90625,42.3828125)"/>
<path d="M0 0 C1.98 0 3.96 0 6 0 C6.625 1.875 6.625 1.875 7 4 C6.34 4.66 5.68 5.32 5 6 C2.375 5.625 2.375 5.625 0 5 C0 3.35 0 1.7 0 0 Z " fill="#161616" transform="translate(137,26)"/>
</svg>